<?xml version="1.0" encoding="utf-8"?>
<!-- Generator: Adobe Illustrator 26.2.1, SVG Export Plug-In . SVG Version: 6.00 Build 0)  -->
<svg version="1.1" xmlns="http://www.w3.org/2000/svg" xmlns:xlink="http://www.w3.org/1999/xlink" x="0px" y="0px"
	 viewBox="0 0 67 120.8" style="enable-background:new 0 0 67 120.8;" xml:space="preserve">
<style type="text/css">
	.st0{display:none;}
	.st1{display:inline;}
	.st2{fill:#EE2737;}
	.st3{fill:#262626;}
</style>
<g id="Capa_2" class="st0">
	<rect class="st1" width="67" height="120.8"/>
</g>
<g id="Capa_1">
	<g>
		<path class="st2" d="M11.3,3.9c-1.5,0-2.6,1.2-2.6,2.6s1.2,2.6,2.6,2.6s2.6-1.2,2.6-2.6S12.7,3.9,11.3,3.9z"/>
		<path class="st2" d="M17,0.7c-1.5,0-2.6,1.2-2.6,2.6s1.2,2.6,2.6,2.6s2.6-1.2,2.6-2.6S18.4,0.7,17,0.7z"/>
		<path class="st2" d="M23.6,0.7c-1.5,0-2.6,1.2-2.6,2.6c0,1.4,1.1,2.6,2.6,2.6l0.1,0l0.1,0c1.4,0,2.5-1.2,2.5-2.6
			C26.2,1.8,25,0.7,23.6,0.7z"/>
		<path class="st2" d="M43.4,0.7c-1.5,0-2.6,1.2-2.6,2.6c0,1.4,1.1,2.6,2.6,2.6l0.1,0l0.1,0c1.4,0,2.5-1.2,2.5-2.6
			C46,1.8,44.9,0.7,43.4,0.7z"/>
		<path class="st2" d="M30.2,0.7c-1.5,0-2.6,1.2-2.6,2.6s1.2,2.6,2.6,2.6s2.6-1.2,2.6-2.6S31.7,0.7,30.2,0.7z"/>
		<path class="st2" d="M55.7,3.9c-1.5,0-2.6,1.2-2.6,2.6s1.2,2.6,2.6,2.6s2.6-1.2,2.6-2.6S57.2,3.9,55.7,3.9z"/>
		<path class="st2" d="M23.6,7.3c-0.1,0-0.1,0-0.1,0c-1.4,0-2.6,1.2-2.6,2.6c0,1.5,1.2,2.6,2.6,2.6s2.6-1.2,2.6-2.6
			C26.2,8.5,25.1,7.3,23.6,7.3z"/>
		<path class="st2" d="M43.5,7.3l-0.1,0l-0.1,0c-1.4,0-2.5,1.2-2.5,2.6c0,1.5,1.2,2.6,2.6,2.6S46,11.3,46,9.9
			C46,8.5,44.9,7.3,43.5,7.3z"/>
		<path class="st2" d="M36.8,0.7c-1.5,0-2.6,1.2-2.6,2.6s1.2,2.6,2.6,2.6s2.6-1.2,2.6-2.6S38.3,0.7,36.8,0.7z"/>
		<path class="st2" d="M49.9,5.9L49.9,5.9l0.2,0c1.4,0,2.5-1.2,2.5-2.6c0-1.5-1.2-2.6-2.6-2.6s-2.6,1.2-2.6,2.6
			C47.4,4.7,48.5,5.9,49.9,5.9z"/>
		<path class="st2" d="M17,7.3c-1.5,0-2.6,1.2-2.6,2.6s1.2,2.6,2.6,2.6s2.6-1.2,2.6-2.6S18.4,7.3,17,7.3z"/>
		<path class="st2" d="M30.2,7.3c-1.5,0-2.6,1.2-2.6,2.6s1.2,2.6,2.6,2.6s2.6-1.2,2.6-2.6S31.7,7.3,30.2,7.3z"/>
		<path class="st2" d="M36.8,7.3c-1.5,0-2.6,1.2-2.6,2.6s1.2,2.6,2.6,2.6s2.6-1.2,2.6-2.6S38.3,7.3,36.8,7.3z"/>
		<path class="st2" d="M50.1,7.3c-0.1,0-0.1,0-0.1,0c-1.4,0-2.6,1.2-2.6,2.6c0,1.5,1.2,2.6,2.6,2.6s2.6-1.2,2.6-2.6
			C52.7,8.5,51.5,7.3,50.1,7.3z"/>
	</g>
	<g>
		<path class="st3" d="M3.3,47.4c-1.5,0-2.6,1.2-2.6,2.6s1.2,2.6,2.6,2.6s2.6-1.2,2.6-2.6S4.8,47.4,3.3,47.4z"/>
		<path class="st3" d="M3.3,46.1c1.4,0,2.6-1.1,2.6-2.6l0-0.1l0-0.1c0-1.4-1.2-2.5-2.6-2.5c-1.5,0-2.6,1.2-2.6,2.6
			S1.8,46.1,3.3,46.1z"/>
		<path class="st3" d="M3.3,26.2c1.4,0,2.6-1.1,2.6-2.6l0-0.1l0-0.1c0-1.4-1.2-2.5-2.6-2.5c-1.5,0-2.6,1.2-2.6,2.6
			S1.8,26.2,3.3,26.2z"/>
		<path class="st3" d="M3.3,39.4c1.5,0,2.6-1.2,2.6-2.6s-1.2-2.6-2.6-2.6s-2.6,1.2-2.6,2.6S1.8,39.4,3.3,39.4z"/>
		<path class="st3" d="M6.6,53.1c-1.5,0-2.6,1.2-2.6,2.6s1.2,2.6,2.6,2.6s2.6-1.2,2.6-2.6S8,53.1,6.6,53.1z"/>
		<path class="st3" d="M6.6,13.9c1.5,0,2.6-1.2,2.6-2.6S8,8.6,6.6,8.6s-2.6,1.2-2.6,2.6S5.1,13.9,6.6,13.9z"/>
		<path class="st3" d="M9.9,46.1c1.5,0,2.6-1.2,2.6-2.6s-1.2-2.6-2.6-2.6c-1.4,0-2.6,1.2-2.6,2.6c0,0.1,0,0.1,0,0.1
			C7.3,44.9,8.5,46.1,9.9,46.1z"/>
		<path class="st3" d="M9.9,26.2c1.5,0,2.6-1.2,2.6-2.6S11.3,21,9.9,21c-1.4,0-2.6,1.1-2.6,2.6l0,0.1l0,0.1
			C7.3,25.1,8.5,26.2,9.9,26.2z"/>
		<path class="st3" d="M3.3,32.8c1.5,0,2.6-1.2,2.6-2.6s-1.2-2.6-2.6-2.6s-2.6,1.2-2.6,2.6S1.8,32.8,3.3,32.8z"/>
		<path class="st3" d="M3.3,19.6c1.4,0,2.6-1.1,2.6-2.6l0-0.1l0-0.1c0-1.4-1.2-2.5-2.6-2.5c-1.5,0-2.6,1.2-2.6,2.6
			S1.8,19.6,3.3,19.6z"/>
		<path class="st3" d="M9.9,47.4c-1.5,0-2.6,1.2-2.6,2.6s1.2,2.6,2.6,2.6s2.6-1.2,2.6-2.6S11.4,47.4,9.9,47.4z"/>
		<path class="st3" d="M9.9,34.2c-1.5,0-2.6,1.2-2.6,2.6s1.2,2.6,2.6,2.6s2.6-1.2,2.6-2.6S11.4,34.2,9.9,34.2z"/>
		<path class="st3" d="M9.9,32.8c1.5,0,2.6-1.2,2.6-2.6s-1.2-2.6-2.6-2.6s-2.6,1.2-2.6,2.6S8.5,32.8,9.9,32.8z"/>
		<path class="st3" d="M7.7,15.5c0,0.1-0.1,0.1-0.1,0.2c0,0.1-0.1,0.2-0.1,0.2c0,0.1,0,0.1-0.1,0.2c0,0.1-0.1,0.2-0.1,0.3
			c0,0.1,0,0.1,0,0.2c0,0.1,0,0.2,0,0.3l0,0.1l0,0c0,1.2,0.9,2.3,2.1,2.5c0.2,0,0.3,0.1,0.5,0.1c1.5,0,2.6-1.2,2.6-2.6
			s-1.2-2.6-2.6-2.6c-0.2,0-0.4,0-0.5,0.1c-0.1,0-0.1,0-0.2,0.1c-0.1,0-0.2,0.1-0.3,0.1c-0.1,0-0.1,0.1-0.2,0.1
			c-0.1,0-0.2,0.1-0.3,0.1c-0.1,0-0.1,0.1-0.2,0.1C8.2,15,8.1,15,8.1,15.1C8,15.2,8,15.2,7.9,15.3C7.9,15.3,7.8,15.4,7.7,15.5z"/>
	</g>
	<g>
		<path class="st2" d="M57.1,47.4c-1.5,0-2.6,1.2-2.6,2.6s1.2,2.6,2.6,2.6s2.6-1.2,2.6-2.6S58.5,47.4,57.1,47.4z"/>
		<path class="st2" d="M57.1,46.1c1.4,0,2.6-1.1,2.6-2.6l0-0.1l0-0.1c0-1.4-1.2-2.5-2.6-2.5c-1.5,0-2.6,1.2-2.6,2.6
			S55.6,46.1,57.1,46.1z"/>
		<path class="st2" d="M57.1,26.2c1.4,0,2.6-1.1,2.6-2.6l0-0.1l0-0.1c0-1.4-1.2-2.5-2.6-2.5c-1.5,0-2.6,1.2-2.6,2.6
			S55.6,26.2,57.1,26.2z"/>
		<path class="st2" d="M57.1,39.4c1.5,0,2.6-1.2,2.6-2.6s-1.2-2.6-2.6-2.6s-2.6,1.2-2.6,2.6S55.6,39.4,57.1,39.4z"/>
		<path class="st2" d="M60.4,53.1c-1.5,0-2.6,1.2-2.6,2.6s1.2,2.6,2.6,2.6s2.6-1.2,2.6-2.6S61.8,53.1,60.4,53.1z"/>
		<path class="st2" d="M60.4,13.9c1.5,0,2.6-1.2,2.6-2.6s-1.2-2.6-2.6-2.6s-2.6,1.2-2.6,2.6S58.9,13.9,60.4,13.9z"/>
		<path class="st2" d="M63.7,46.1c1.5,0,2.6-1.2,2.6-2.6s-1.2-2.6-2.6-2.6c-1.4,0-2.6,1.2-2.6,2.6c0,0.1,0,0.1,0,0.1
			C61.1,44.9,62.3,46.1,63.7,46.1z"/>
		<path class="st2" d="M63.7,26.2c1.5,0,2.6-1.2,2.6-2.6S65.1,21,63.7,21c-1.4,0-2.6,1.1-2.6,2.6l0,0.1l0,0.1
			C61.1,25.1,62.3,26.2,63.7,26.2z"/>
		<path class="st2" d="M57.1,32.8c1.5,0,2.6-1.2,2.6-2.6s-1.2-2.6-2.6-2.6s-2.6,1.2-2.6,2.6S55.6,32.8,57.1,32.8z"/>
		<path class="st2" d="M57.1,19.6c1.4,0,2.6-1.1,2.6-2.6l0-0.1l0-0.1c0-1.4-1.2-2.5-2.6-2.5c-1.5,0-2.6,1.2-2.6,2.6
			S55.6,19.6,57.1,19.6z"/>
		<path class="st2" d="M63.7,47.4c-1.5,0-2.6,1.2-2.6,2.6s1.2,2.6,2.6,2.6s2.6-1.2,2.6-2.6S65.1,47.4,63.7,47.4z"/>
		<path class="st2" d="M63.7,34.2c-1.5,0-2.6,1.2-2.6,2.6s1.2,2.6,2.6,2.6s2.6-1.2,2.6-2.6S65.1,34.2,63.7,34.2z"/>
		<path class="st2" d="M63.7,32.8c1.5,0,2.6-1.2,2.6-2.6s-1.2-2.6-2.6-2.6s-2.6,1.2-2.6,2.6S62.2,32.8,63.7,32.8z"/>
		<path class="st2" d="M63.7,19.6c1.5,0,2.6-1.2,2.6-2.6s-1.2-2.6-2.6-2.6c-1.4,0-2.6,1.2-2.6,2.6c0,0.1,0,0.1,0,0.1
			C61.1,18.5,62.3,19.6,63.7,19.6z"/>
	</g>
	<g>
		<path class="st3" d="M11.3,57.8c-1.5,0-2.6,1.2-2.6,2.6S9.8,63,11.3,63s2.6-1.2,2.6-2.6S12.7,57.8,11.3,57.8z"/>
		<path class="st3" d="M17,54.5c-1.5,0-2.6,1.2-2.6,2.6s1.2,2.6,2.6,2.6s2.6-1.2,2.6-2.6S18.4,54.5,17,54.5z"/>
		<path class="st3" d="M23.6,54.5c-1.5,0-2.6,1.2-2.6,2.6c0,1.4,1.1,2.6,2.6,2.6l0.1,0l0.1,0c1.4,0,2.5-1.2,2.5-2.6
			C26.2,55.7,25,54.5,23.6,54.5z"/>
		<path class="st3" d="M43.4,54.5c-1.5,0-2.6,1.2-2.6,2.6c0,1.4,1.1,2.6,2.6,2.6l0.1,0l0.1,0c1.4,0,2.5-1.2,2.5-2.6
			C46,55.7,44.9,54.5,43.4,54.5z"/>
		<path class="st3" d="M30.2,54.5c-1.5,0-2.6,1.2-2.6,2.6s1.2,2.6,2.6,2.6s2.6-1.2,2.6-2.6S31.7,54.5,30.2,54.5z"/>
		<path class="st3" d="M55.7,57.8c-1.5,0-2.6,1.2-2.6,2.6s1.2,2.6,2.6,2.6s2.6-1.2,2.6-2.6S57.2,57.8,55.7,57.8z"/>
		<path class="st3" d="M23.6,61.1c-0.1,0-0.1,0-0.1,0c-1.4,0-2.6,1.2-2.6,2.6c0,1.5,1.2,2.6,2.6,2.6s2.6-1.2,2.6-2.6
			C26.2,62.3,25.1,61.1,23.6,61.1z"/>
		<path class="st3" d="M43.5,61.1l-0.1,0l-0.1,0c-1.4,0-2.5,1.2-2.5,2.6c0,1.5,1.2,2.6,2.6,2.6s2.6-1.2,2.6-2.6
			C46,62.3,44.9,61.1,43.5,61.1z"/>
		<path class="st3" d="M36.8,54.5c-1.5,0-2.6,1.2-2.6,2.6s1.2,2.6,2.6,2.6s2.6-1.2,2.6-2.6S38.3,54.5,36.8,54.5z"/>
		<path class="st3" d="M49.9,59.7L49.9,59.7l0.2,0c1.4,0,2.5-1.2,2.5-2.6c0-1.5-1.2-2.6-2.6-2.6s-2.6,1.2-2.6,2.6
			C47.4,58.5,48.5,59.7,49.9,59.7z"/>
		<path class="st3" d="M17,61.1c-1.5,0-2.6,1.2-2.6,2.6c0,1.5,1.2,2.6,2.6,2.6s2.6-1.2,2.6-2.6C19.6,62.3,18.4,61.1,17,61.1z"/>
		<path class="st3" d="M30.2,61.1c-1.5,0-2.6,1.2-2.6,2.6c0,1.5,1.2,2.6,2.6,2.6s2.6-1.2,2.6-2.6C32.8,62.3,31.7,61.1,30.2,61.1z"/>
		<path class="st3" d="M36.8,61.1c-1.5,0-2.6,1.2-2.6,2.6c0,1.5,1.2,2.6,2.6,2.6s2.6-1.2,2.6-2.6C39.4,62.3,38.3,61.1,36.8,61.1z"/>
		<path class="st3" d="M50.1,61.1c-0.1,0-0.1,0-0.1,0c-1.4,0-2.6,1.2-2.6,2.6c0,1.5,1.2,2.6,2.6,2.6s2.6-1.2,2.6-2.6
			C52.7,62.3,51.5,61.1,50.1,61.1z"/>
	</g>
	<g>
		<path class="st3" d="M11.3,116.8c-1.5,0-2.6-1.2-2.6-2.6s1.2-2.6,2.6-2.6s2.6,1.2,2.6,2.6S12.7,116.8,11.3,116.8z"/>
		<path class="st3" d="M17,120.1c-1.5,0-2.6-1.2-2.6-2.6s1.2-2.6,2.6-2.6s2.6,1.2,2.6,2.6S18.4,120.1,17,120.1z"/>
		<path class="st3" d="M23.6,120.1c-1.5,0-2.6-1.2-2.6-2.6c0-1.4,1.1-2.6,2.6-2.6l0.1,0l0.1,0c1.4,0,2.5,1.2,2.5,2.6
			C26.2,118.9,25,120.1,23.6,120.1z"/>
		<path class="st3" d="M43.4,120.1c-1.5,0-2.6-1.2-2.6-2.6c0-1.4,1.1-2.6,2.6-2.6l0.1,0l0.1,0c1.4,0,2.5,1.2,2.5,2.6
			C46,118.9,44.9,120.1,43.4,120.1z"/>
		<path class="st3" d="M30.2,120.1c-1.5,0-2.6-1.2-2.6-2.6s1.2-2.6,2.6-2.6s2.6,1.2,2.6,2.6S31.7,120.1,30.2,120.1z"/>
		<path class="st3" d="M55.7,116.8c-1.5,0-2.6-1.2-2.6-2.6s1.2-2.6,2.6-2.6s2.6,1.2,2.6,2.6S57.2,116.8,55.7,116.8z"/>
		<path class="st3" d="M23.6,113.5c-0.1,0-0.1,0-0.1,0c-1.4,0-2.6-1.2-2.6-2.6c0-1.5,1.2-2.6,2.6-2.6s2.6,1.2,2.6,2.6
			C26.2,112.3,25.1,113.5,23.6,113.5z"/>
		<path class="st3" d="M43.5,113.5l-0.1,0l-0.1,0c-1.4,0-2.5-1.2-2.5-2.6c0-1.5,1.2-2.6,2.6-2.6s2.6,1.2,2.6,2.6
			C46,112.3,44.9,113.5,43.5,113.5z"/>
		<path class="st3" d="M36.8,120.1c-1.5,0-2.6-1.2-2.6-2.6s1.2-2.6,2.6-2.6s2.6,1.2,2.6,2.6S38.3,120.1,36.8,120.1z"/>
		<path class="st3" d="M49.9,114.9L49.9,114.9l0.2,0c1.4,0,2.5,1.2,2.5,2.6c0,1.5-1.2,2.6-2.6,2.6s-2.6-1.2-2.6-2.6
			C47.4,116.1,48.5,114.9,49.9,114.9z"/>
		<path class="st3" d="M17,113.5c-1.5,0-2.6-1.2-2.6-2.6s1.2-2.6,2.6-2.6s2.6,1.2,2.6,2.6S18.4,113.5,17,113.5z"/>
		<path class="st3" d="M30.2,113.5c-1.5,0-2.6-1.2-2.6-2.6s1.2-2.6,2.6-2.6s2.6,1.2,2.6,2.6S31.7,113.5,30.2,113.5z"/>
		<path class="st3" d="M36.8,113.5c-1.5,0-2.6-1.2-2.6-2.6s1.2-2.6,2.6-2.6s2.6,1.2,2.6,2.6S38.3,113.5,36.8,113.5z"/>
		<path class="st3" d="M50.1,113.5c-0.1,0-0.1,0-0.1,0c-1.4,0-2.6-1.2-2.6-2.6c0-1.5,1.2-2.6,2.6-2.6s2.6,1.2,2.6,2.6
			C52.7,112.3,51.5,113.5,50.1,113.5z"/>
	</g>
	<g>
		<path class="st3" d="M3.3,73.4c-1.5,0-2.6-1.2-2.6-2.6s1.2-2.6,2.6-2.6s2.6,1.2,2.6,2.6S4.8,73.4,3.3,73.4z"/>
		<path class="st3" d="M3.3,74.7c1.4,0,2.6,1.1,2.6,2.6l0,0.1l0,0.1c0,1.4-1.2,2.5-2.6,2.5c-1.5,0-2.6-1.2-2.6-2.6
			S1.8,74.7,3.3,74.7z"/>
		<path class="st3" d="M3.3,94.6c1.4,0,2.6,1.1,2.6,2.6l0,0.1l0,0.1c0,1.4-1.2,2.5-2.6,2.5c-1.5,0-2.6-1.2-2.6-2.6
			S1.8,94.6,3.3,94.6z"/>
		<path class="st3" d="M3.3,81.3c1.5,0,2.6,1.2,2.6,2.6s-1.2,2.6-2.6,2.6S0.7,85.4,0.7,84S1.8,81.3,3.3,81.3z"/>
		<path class="st3" d="M6.6,67.7c-1.5,0-2.6-1.2-2.6-2.6c0-1.5,1.2-2.6,2.6-2.6s2.6,1.2,2.6,2.6C9.2,66.5,8,67.7,6.6,67.7z"/>
		<path class="st3" d="M6.6,106.9c1.5,0,2.6,1.2,2.6,2.6s-1.2,2.6-2.6,2.6s-2.6-1.2-2.6-2.6S5.1,106.9,6.6,106.9z"/>
		<path class="st3" d="M9.9,74.7c1.5,0,2.6,1.2,2.6,2.6S11.3,80,9.9,80c-1.4,0-2.6-1.2-2.6-2.6c0-0.1,0-0.1,0-0.1
			C7.3,75.9,8.5,74.7,9.9,74.7z"/>
		<path class="st3" d="M9.9,94.6c1.5,0,2.6,1.2,2.6,2.6s-1.2,2.6-2.6,2.6c-1.4,0-2.6-1.1-2.6-2.6l0-0.1l0-0.1
			C7.3,95.7,8.5,94.6,9.9,94.6z"/>
		<path class="st3" d="M3.3,88c1.5,0,2.6,1.2,2.6,2.6s-1.2,2.6-2.6,2.6S0.7,92,0.7,90.6S1.8,88,3.3,88z"/>
		<path class="st3" d="M3.3,101.2c1.4,0,2.6,1.1,2.6,2.6l0,0.1l0,0.1c0,1.4-1.2,2.5-2.6,2.5c-1.5,0-2.6-1.2-2.6-2.6
			S1.8,101.2,3.3,101.2z"/>
		<path class="st3" d="M9.9,73.4c-1.5,0-2.6-1.2-2.6-2.6s1.2-2.6,2.6-2.6s2.6,1.2,2.6,2.6S11.4,73.4,9.9,73.4z"/>
		<path class="st3" d="M9.9,86.6c-1.5,0-2.6-1.2-2.6-2.6s1.2-2.6,2.6-2.6s2.6,1.2,2.6,2.6S11.4,86.6,9.9,86.6z"/>
		<path class="st3" d="M9.9,88c1.5,0,2.6,1.2,2.6,2.6s-1.2,2.6-2.6,2.6S7.3,92,7.3,90.6S8.5,88,9.9,88z"/>
		<path class="st3" d="M7.7,105.3c0-0.1-0.1-0.1-0.1-0.2c0-0.1-0.1-0.2-0.1-0.2c0-0.1,0-0.1-0.1-0.2c0-0.1-0.1-0.2-0.1-0.3
			c0-0.1,0-0.1,0-0.2c0-0.1,0-0.2,0-0.3l0-0.1l0,0c0-1.2,0.9-2.3,2.1-2.5c0.2,0,0.3-0.1,0.5-0.1c1.5,0,2.6,1.2,2.6,2.6
			s-1.2,2.6-2.6,2.6c-0.2,0-0.4,0-0.5-0.1c-0.1,0-0.1,0-0.2-0.1c-0.1,0-0.2-0.1-0.3-0.1c-0.1,0-0.1-0.1-0.2-0.1
			c-0.1,0-0.2-0.1-0.3-0.1c-0.1,0-0.1-0.1-0.2-0.1c-0.1-0.1-0.2-0.1-0.2-0.2c-0.1-0.1-0.1-0.1-0.1-0.2
			C7.9,105.5,7.8,105.4,7.7,105.3z"/>
	</g>
	<g>
		<path class="st2" d="M57.1,73.4c-1.5,0-2.6-1.2-2.6-2.6s1.2-2.6,2.6-2.6s2.6,1.2,2.6,2.6S58.5,73.4,57.1,73.4z"/>
		<path class="st2" d="M57.1,74.7c1.4,0,2.6,1.1,2.6,2.6l0,0.1l0,0.1c0,1.4-1.2,2.5-2.6,2.5c-1.5,0-2.6-1.2-2.6-2.6
			S55.6,74.7,57.1,74.7z"/>
		<path class="st2" d="M57.1,94.6c1.4,0,2.6,1.1,2.6,2.6l0,0.1l0,0.1c0,1.4-1.2,2.5-2.6,2.5c-1.5,0-2.6-1.2-2.6-2.6
			S55.6,94.6,57.1,94.6z"/>
		<path class="st2" d="M57.1,81.3c1.5,0,2.6,1.2,2.6,2.6s-1.2,2.6-2.6,2.6s-2.6-1.2-2.6-2.6S55.6,81.3,57.1,81.3z"/>
		<path class="st2" d="M60.4,67.7c-1.5,0-2.6-1.2-2.6-2.6c0-1.5,1.2-2.6,2.6-2.6s2.6,1.2,2.6,2.6C63,66.5,61.8,67.7,60.4,67.7z"/>
		<path class="st2" d="M60.4,106.9c1.5,0,2.6,1.2,2.6,2.6s-1.2,2.6-2.6,2.6s-2.6-1.2-2.6-2.6S58.9,106.9,60.4,106.9z"/>
		<path class="st2" d="M63.7,74.7c1.5,0,2.6,1.2,2.6,2.6S65.1,80,63.7,80c-1.4,0-2.6-1.2-2.6-2.6c0-0.1,0-0.1,0-0.1
			C61.1,75.9,62.3,74.7,63.7,74.7z"/>
		<path class="st2" d="M63.7,94.6c1.5,0,2.6,1.2,2.6,2.6s-1.2,2.6-2.6,2.6c-1.4,0-2.6-1.1-2.6-2.6l0-0.1l0-0.1
			C61.1,95.7,62.3,94.6,63.7,94.6z"/>
		<path class="st2" d="M57.1,88c1.5,0,2.6,1.2,2.6,2.6s-1.2,2.6-2.6,2.6s-2.6-1.2-2.6-2.6S55.6,88,57.1,88z"/>
		<path class="st2" d="M57.1,101.2c1.4,0,2.6,1.1,2.6,2.6l0,0.1l0,0.1c0,1.4-1.2,2.5-2.6,2.5c-1.5,0-2.6-1.2-2.6-2.6
			S55.6,101.2,57.1,101.2z"/>
		<path class="st2" d="M63.7,73.4c-1.5,0-2.6-1.2-2.6-2.6s1.2-2.6,2.6-2.6s2.6,1.2,2.6,2.6S65.1,73.4,63.7,73.4z"/>
		<path class="st2" d="M63.7,86.6c-1.5,0-2.6-1.2-2.6-2.6s1.2-2.6,2.6-2.6s2.6,1.2,2.6,2.6S65.1,86.6,63.7,86.6z"/>
		<path class="st2" d="M63.7,88c1.5,0,2.6,1.2,2.6,2.6s-1.2,2.6-2.6,2.6s-2.6-1.2-2.6-2.6S62.2,88,63.7,88z"/>
		<path class="st2" d="M63.7,101.2c1.5,0,2.6,1.2,2.6,2.6s-1.2,2.6-2.6,2.6c-1.4,0-2.6-1.2-2.6-2.6c0-0.1,0-0.1,0-0.1
			C61.1,102.3,62.3,101.2,63.7,101.2z"/>
	</g>
</g>
</svg>
